<svg width="56" height="48" viewBox="0 0 56 48" fill="none" xmlns="http://www.w3.org/2000/svg">
<path fill-rule="evenodd" clip-rule="evenodd" d="M28 17C23 17 19 21 19 26C19 31 23 35 28 35C33 35 37 31 37 26C37 21 33 17 28 17ZM44.4 6C43.5 2.5 40.4 0 36.7 0H20.2C16.5 0 13.4 2.6 12.5 6H12C5.4 6 0 11.4 0 18V36C0 42.6 5.4 48 12 48H44C50.6 48 56 42.6 56 36V18C56 11.5 50.8 6.2 44.4 6ZM28 38C21.4 38 16 32.6 16 26C16 19.4 21.4 14 28 14C34.6 14 40 19.4 40 26C40 32.6 34.6 38 28 38ZM46.5 17C45.1 17 44 15.9 44 14.5C44 13.1 45.1 12 46.5 12C47.9 12 49 13.1 49 14.5C49 15.9 47.9 17 46.5 17Z" fill="#9AA3BC"/>
</svg>
