<svg width="14" height="14" viewBox="0 0 14 14" fill="none" xmlns="http://www.w3.org/2000/svg">
<path d="M13.534 0C13.6684 0 13.7826 0.0509215 13.8766 0.152764C13.9706 0.254607 14.0109 0.378274 13.9975 0.523763V13.8618C13.9975 13.9345 13.9773 13.9782 13.937 13.9927C13.8967 14.0073 13.8497 14 13.796 13.9709L11.2 11H0.466667C0.332336 11 0.224872 10.9491 0.144274 10.8472C0.0636757 10.7454 0.0166601 10.629 0.00322707 10.4981L0 0.523763C0 0.378274 0.0470156 0.254607 0.141047 0.152764C0.235078 0.0509215 0.342542 0 0.46344 0H13.534Z" fill="#1F2933"/>
<path d="M13.534 0C13.6684 0 13.7826 0.0509215 13.8766 0.152764C13.9706 0.254607 14.0109 0.378274 13.9975 0.523763V13.8618C13.9975 13.9345 13.9773 13.9782 13.937 13.9927C13.8967 14.0073 13.8497 14 13.796 13.9709L11.2 11H0.466667C0.332336 11 0.224872 10.9491 0.144274 10.8472C0.0636757 10.7454 0.0166601 10.629 0.00322707 10.4981L0 0.523763C0 0.378274 0.0470156 0.254607 0.141047 0.152764C0.235078 0.0509215 0.342542 0 0.46344 0H13.534Z" fill="#9AA3BC"/>
</svg>
