<svg width="24" height="24" viewBox="0 0 24 24" fill="none" xmlns="http://www.w3.org/2000/svg">
<g clip-path="url(#clip0)">
<path d="M24 18.9911C24 18.9911 23.2048 19.637 21.8012 20.41C21.513 20.5688 21.2035 20.733 20.8672 20.8971H3.12742C1.15277 19.9282 0 18.9911 0 18.9911C4.56304 14.4696 8.13342 7.9891 8.13342 7.9891C8.13342 7.9891 8.13342 7.42259 8.13342 6.08308C8.13342 4.74886 7.17812 1.18566 7.17812 1.18566C7.5517 0.14264 8.45364 -0.079729 9.37692 0.0155721C10.6684 0.147935 12.0027 0.905049 12.0027 0.905049C12.0027 0.905049 15.9306 -1.31864 16.8272 1.18036C16.8272 1.18036 15.8719 4.74357 15.8719 6.07778V7.98381C15.8719 7.9891 19.4423 14.4696 24 18.9911Z" fill="#FB6572"/>
<path d="M10.551 6.08347C10.2842 7.19002 9.58506 9.53549 9.58506 9.53549L9.04069 10.6103L8.00534 20.8975H3.12742C1.15277 19.9286 0 18.9915 0 18.9915C4.56304 14.47 8.13342 7.98949 8.13342 7.98949C8.13342 7.98949 8.13342 7.42298 8.13342 6.08347C8.13342 4.74925 7.17812 1.18605 7.17812 1.18605C7.5517 0.143031 8.45364 -0.0793384 9.37692 0.0159627C7.38626 3.09737 10.9406 4.48982 10.551 6.08347Z" fill="#EA394E"/>
<path d="M16 8H8V6H16" fill="#FCE588"/>
<path d="M11 8H8V6H11" fill="#E9C94B"/>
<path d="M21.8065 20.4103C21.5183 20.5692 21.2088 20.7333 20.8726 20.8974H3.9066C3.8052 20.8339 3.75183 20.7968 3.75183 20.7968C7.23682 16.4077 10.6418 13.2786 10.6418 13.2786L14.9593 10.6208C14.9593 10.6155 18.4123 16.0741 21.8065 20.4103Z" fill="#EA394E"/>
<path d="M9.04066 10.6102C9.04066 10.6102 6.30817 16.8948 2.82318 21.2892C2.82318 21.2892 6.63906 24 12.0026 24C17.3609 24 21.1821 21.2892 21.1821 21.2892C17.6971 16.9 14.9646 10.6102 14.9646 10.6102" fill="#FB6572"/>
</g>
<defs>
<clipPath id="clip0">
<rect width="24" height="24" fill="white"/>
</clipPath>
</defs>
</svg>
