<svg width="17" height="17" viewBox="0 0 17 17" fill="none" xmlns="http://www.w3.org/2000/svg">
<path d="M0.00390625 12.6997V17.0002H4.28892L12.3562 8.90383L8.07116 4.60334L0.00390625 12.6997ZM15.6699 5.57812C15.7758 5.47203 15.8599 5.34601 15.9172 5.20728C15.9746 5.06854 16.0041 4.91982 16.0041 4.76963C16.0041 4.61944 15.9746 4.47072 15.9172 4.33198C15.8599 4.19325 15.7758 4.06723 15.6699 3.96114L12.9961 1.27763C12.8904 1.17132 12.7648 1.08698 12.6266 1.02943C12.4883 0.971882 12.3401 0.942261 12.1905 0.942261C12.0408 0.942261 11.8926 0.971882 11.7544 1.02943C11.6162 1.08698 11.4906 1.17132 11.3849 1.27763L9.29382 3.37627L13.5788 7.67676L15.6699 5.57812Z" fill="#504DE2"/>
</svg>
