<svg width="40" height="40" viewBox="0 0 40 40" fill="none" xmlns="http://www.w3.org/2000/svg">
<g filter="url(#filter0_d)">
<rect width="37" height="37" fill="#504DE2"/>
<rect x="0.5" y="0.5" width="36" height="36" stroke="#1F2933"/>
</g>
<path d="M11 21.715V26H15.285L23.3521 17.9328L19.0672 13.6479L11 21.715ZM26.6658 14.6191C26.7718 14.5134 26.8558 14.3879 26.9131 14.2496C26.9705 14.1114 27 13.9632 27 13.8136C27 13.6639 26.9705 13.5157 26.9131 13.3775C26.8558 13.2393 26.7718 13.1137 26.6658 13.008L23.992 10.3342C23.8863 10.2282 23.7607 10.1442 23.6225 10.0869C23.4843 10.0295 23.3361 10 23.1864 10C23.0368 10 22.8886 10.0295 22.7504 10.0869C22.6121 10.1442 22.4866 10.2282 22.3809 10.3342L20.2898 12.4252L24.5748 16.7102L26.6658 14.6191Z" fill="white"/>
<defs>
<filter id="filter0_d" x="0" y="0" width="40" height="40" filterUnits="userSpaceOnUse" color-interpolation-filters="sRGB">
<feFlood flood-opacity="0" result="BackgroundImageFix"/>
<feColorMatrix in="SourceAlpha" type="matrix" values="0 0 0 0 0 0 0 0 0 0 0 0 0 0 0 0 0 0 127 0"/>
<feOffset dx="3" dy="3"/>
<feColorMatrix type="matrix" values="0 0 0 0 0.121569 0 0 0 0 0.160784 0 0 0 0 0.2 0 0 0 1 0"/>
<feBlend mode="normal" in2="BackgroundImageFix" result="effect1_dropShadow"/>
<feBlend mode="normal" in="SourceGraphic" in2="effect1_dropShadow" result="shape"/>
</filter>
</defs>
</svg>
