<svg width="14" height="12" viewBox="0 0 14 12" fill="none" xmlns="http://www.w3.org/2000/svg">
<path d="M13.5634 1.6934C12.977 0.550137 11.288 -0.385259 9.32337 0.159349C8.38456 0.416994 7.56546 0.969521 6.9999 1.72666C6.43434 0.969521 5.61525 0.416994 4.67644 0.159349C2.7074 -0.376945 1.02277 0.550137 0.436438 1.6934C-0.386183 3.29397 -0.0448827 5.09408 1.45159 7.04387C2.62426 8.5696 4.30013 10.1161 6.73299 11.9121C6.80987 11.9691 6.90458 12 7.00209 12C7.09959 12 7.19431 11.9691 7.27119 11.9121C9.69967 10.1203 11.3799 8.58623 12.5526 7.04387C14.0447 5.09408 14.386 3.29397 13.5634 1.6934Z" fill="#9AA3BC"/>
</svg>
