<svg width="24" height="24" viewBox="0 0 24 24" fill="none" xmlns="http://www.w3.org/2000/svg">
<path fill-rule="evenodd" clip-rule="evenodd" d="M22.037 22H17.885V15.504C17.885 13.954 17.859 11.962 15.728 11.962C13.568 11.962 13.238 13.65 13.238 15.392V22H9.09V8.64002H13.07V10.467H13.128C13.681 9.41702 15.036 8.30902 17.056 8.30902C21.26 8.30902 22.036 11.075 22.036 14.673V22H22.037ZM4.409 6.81602C4.09257 6.81629 3.7792 6.75416 3.48681 6.63319C3.19441 6.51222 2.92874 6.33478 2.70499 6.11103C2.48125 5.88728 2.30381 5.62161 2.18284 5.32922C2.06187 5.03683 1.99974 4.72345 2 4.40702C2 3.93085 2.14118 3.46537 2.40568 3.06942C2.67019 2.67347 3.04615 2.36483 3.48604 2.18251C3.92593 2.0002 4.40999 1.9524 4.87704 2.04515C5.34409 2.1379 5.77316 2.36704 6.11001 2.7036C6.44685 3.04017 6.67635 3.46905 6.76949 3.93602C6.86263 4.403 6.81523 4.8871 6.63328 5.32714C6.45133 5.76718 6.143 6.1434 5.74727 6.40823C5.35154 6.67307 4.88617 6.81463 4.41 6.81502L4.409 6.81602ZM6.486 22H2.33V8.64002H6.486V22Z" fill="#1F2933"/>
</svg>
