<svg width="17" height="24" viewBox="0 0 17 24" fill="none" xmlns="http://www.w3.org/2000/svg">
<path d="M8.49725 0C4.91165 0.0046875 2.00566 2.91094 2.00098 6.50156V10.5C2.00098 10.7766 2.22596 11.0016 2.50249 11.0016H4.49918C4.77572 11.0016 5.0007 10.7766 5.0007 10.5V6.50156C5.0007 4.57031 6.56618 3 8.50194 3C10.4377 3 11.9985 4.56562 11.9985 6.50156V10.5C11.9985 10.7766 12.2235 11.0016 12.5 11.0016H14.5014C14.7779 11.0016 15.0029 10.7766 15.0029 10.5V6.50156C14.9935 2.91094 12.0876 0.0046875 8.49725 0Z" fill="#C4CFE3"/>
<path d="M2.49821 9.99847H14.4971C15.8798 9.99847 16.9953 11.1188 16.9953 12.4969V21.4969C16.9953 22.8797 15.8751 23.9953 14.4971 23.9953H2.49821C1.12021 24 0 22.8797 0 21.5016V12.5016C0 11.1188 1.12021 9.99847 2.49821 9.99847Z" fill="#FFC107"/>
<path d="M11.0002 15.5015C11.0048 14.1187 9.88932 12.9984 8.51132 12.989C7.12864 12.9843 6.00843 14.1 5.99905 15.4781C5.99437 16.4343 6.53338 17.3062 7.39111 17.7281L7.00677 20.4281C6.96928 20.6999 7.15676 20.9531 7.4333 20.9953C7.45673 20.9999 7.48017 20.9999 7.5036 20.9999H9.50498C9.78152 21.0046 10.0065 20.7796 10.0112 20.5031C10.0112 20.4796 10.0112 20.4515 10.0065 20.4281L9.62216 17.7281C10.4565 17.3062 10.9908 16.4437 11.0002 15.5015Z" fill="white"/>
</svg>
