<svg width="22" height="22" viewBox="0 0 22 22" fill="none" xmlns="http://www.w3.org/2000/svg">
<g clip-path="url(#clip0)">
<path d="M13.0391 16.6625L9.73939 13.3568C9.52284 13.1402 9.1774 13.1402 8.96086 13.3568C8.85774 13.4599 8.80103 13.5992 8.80103 13.7436V21.4482C8.80103 21.6854 8.95055 21.8969 9.1774 21.9691C9.23412 21.9897 9.29083 22 9.3527 22C9.528 22 9.68783 21.9175 9.79095 21.7783L13.0907 17.3793C13.2557 17.1627 13.2299 16.8533 13.0391 16.6625Z" fill="#C9D8FF"/>
<path d="M10.6211 15.4299L7.32131 14.3314C7.03259 14.2334 6.72323 14.3882 6.62527 14.6769C6.58918 14.7904 6.58918 14.9142 6.62527 15.0225L8.82682 21.6235C8.90416 21.8504 9.11039 22 9.34756 22H9.38365C9.63113 21.9845 9.83737 21.804 9.88893 21.5616L10.9871 16.059C11.0438 15.7857 10.8892 15.5175 10.6211 15.4299Z" fill="#91A8F8"/>
<path d="M21.7626 0.104228C21.5873 -0.0195411 21.3553 -0.0298552 21.1697 0.078443L0.273034 12.1769C0.0100861 12.3316 -0.0775634 12.6668 0.0719563 12.9298C0.138982 13.0484 0.247255 13.131 0.376151 13.1774L10.2548 16.4727L17.9318 19.7629C18.2102 19.8815 18.535 19.7526 18.6536 19.4741C18.6691 19.4329 18.6846 19.3968 18.6897 19.3555L21.9895 0.650876C22.0256 0.439437 21.9379 0.222841 21.7626 0.104228Z" fill="#ADC4FF"/>
<path d="M21.8969 0.871527C22.0722 0.623989 22.0206 0.283623 21.7731 0.103126C21.5514 -0.0567427 21.2524 -0.0309574 21.0616 0.159854L6.71806 15.2907L10.8582 16.7192L21.8969 0.871527Z" fill="#91A8F8"/>
</g>
<defs>
<clipPath id="clip0">
<rect width="22" height="22" fill="white"/>
</clipPath>
</defs>
</svg>
