<svg width="22" height="22" viewBox="0 0 22 22" fill="none" xmlns="http://www.w3.org/2000/svg">
<path fill-rule="evenodd" clip-rule="evenodd" d="M11 0C10.0577 0 9.26763 0.65164 9.05581 1.52886C6.2001 2.18607 4.15789 4.33938 4.15789 7V9.5V12C4.15789 13.8619 2.83333 15.6106 1 16.3333V20H7.2276C7.77672 21.1652 9.25837 22 11 22C12.7416 22 14.2233 21.1652 14.7724 20H21V16.3333C19 15.7551 17.8421 13.8619 17.8421 12V10V7C17.8421 4.53266 15.7354 2.42143 12.9587 1.59372C12.771 0.683953 11.9654 0 11 0Z" fill="#FFD37B"/>
<path fill-rule="evenodd" clip-rule="evenodd" d="M11 22C12.7416 22 14.2233 21.1652 14.7724 20H21V16.3333C19 15.7551 17.8421 13.8619 17.8421 12V10V7C17.8421 4.53266 15.7354 2.42143 12.9587 1.59372C12.771 0.683953 11.9654 0 11 0V22Z" fill="#F7C45E"/>
</svg>
