<svg width="24" height="27" viewBox="0 0 24 27" fill="none" xmlns="http://www.w3.org/2000/svg">
<g clip-path="url(#clip0)">
<path d="M16 19.2649V16H8V19.2649L11.9975 23L16 19.2649Z" fill="#E6AF78"/>
<path d="M22.5729 20.6139L16.8643 19.2541C16.7807 19.2329 16.697 19.2012 16.6238 19.1588L11.9974 21.889L7.55391 19.0266C7.4389 19.1377 7.29776 19.217 7.1357 19.2541L1.42191 20.6139C0.590721 20.8149 0 21.5662 0 22.434V26.09C0 26.6086 0.412982 27.0266 0.925289 27.0266H23.0747C23.587 27.0266 24 26.6086 24 26.09V22.434C23.9948 21.5662 23.4041 20.8149 22.5729 20.6139Z" fill="#504DE2"/>
<path d="M8 16V19.5374C13.0346 21.4959 16 16.6022 16 16.6022V16.0054L8 16Z" fill="#D29B6E"/>
<path d="M6.00262 5.12048L6.40524 14.0431C6.44184 14.8764 6.84968 15.6515 7.50851 16.1525L9.417 17.5974C9.89805 17.9613 10.4784 18.1564 11.0797 18.1564H12.9255C13.5268 18.1564 14.1072 17.9613 14.5882 17.5974L16.4967 16.1525C17.1608 15.6515 17.5634 14.8764 17.6 14.0431L18.0026 5.12048H6.00262Z" fill="#F0C087"/>
<path d="M10.6144 6.98201C12.4601 6.98201 15.2314 6.51795 15.885 5.12048H6.00262L6.40524 14.0431C6.44184 14.8764 6.84968 15.6515 7.50851 16.1525L9.417 17.5974C9.89805 17.9613 10.4784 18.1564 11.0797 18.1564H12.0052C11.0797 18.1564 9.234 16.2949 9.234 13.9693C9.234 12.8303 9.234 9.78221 9.234 8.38474C9.22877 7.91541 9.69413 6.98201 10.6144 6.98201Z" fill="#E6AF78"/>
<path d="M7.78042 18.051L12 21.8795C12 21.8795 10.8183 22.4806 9.3595 23.6935C9.05623 23.9414 8.60133 23.8412 8.44447 23.4826L6.46277 19.0845L7.09022 18.1353C7.24708 17.9033 7.57127 17.8611 7.78042 18.051Z" fill="#7370FD"/>
<path d="M16.2196 18.051L12 21.8795C12 21.8795 13.1817 22.4806 14.6405 23.6935C14.9438 23.9414 15.3987 23.8412 15.5556 23.4826L17.5373 19.0845L16.9098 18.1353C16.7582 17.9033 16.4288 17.8611 16.2196 18.051Z" fill="#7370FD"/>
<path d="M14.7974 2.03555L15.2313 5.12051C17.2078 5.52129 17.4902 8.64317 17.532 9.53965C17.5372 9.70313 17.5895 9.85606 17.6784 9.99317L18.4313 11.1744C18.4313 11.1744 18.1751 9.22325 19.3568 7.91543C19.3568 7.91543 19.7595 0.174026 14.7974 2.03555Z" fill="#785550"/>
<path d="M18.8967 10.974L18.3739 13.0781C18.3111 13.326 18.0915 13.5 17.8353 13.5C17.553 13.5 17.3177 13.289 17.2863 13.0096L17.0196 10.858C16.9464 10.2832 17.3909 9.77167 17.966 9.77167C18.5883 9.77694 19.0432 10.3676 18.8967 10.974Z" fill="#F0C087"/>
<path d="M6.44179 1.20237L7.12676 1.6717C4.04179 3.97092 4.61695 7.91018 4.61695 7.91018C5.54244 8.84358 5.54244 11.1692 5.54244 11.1692L6.46793 10.2358C6.46793 10.2358 6.11238 7.54631 7.85355 6.51272C9.46924 5.55295 10.881 6.04866 12.3241 6.04866C16.1882 6.04866 17.2705 4.57737 17.0823 2.78967C16.983 1.86155 15.5817 -0.0632563 12.0052 -0.0052485C10.5568 0.0263921 7.84833 0.469361 6.44179 1.20237Z" fill="#694B4B"/>
<path d="M6.17512 5.64784C6.17512 5.64784 5.68362 3.69667 7.12675 1.67694C4.04179 3.97616 4.61695 7.91542 4.61695 7.91542C5.54244 8.84882 5.54244 11.1744 5.54244 11.1744L6.46793 10.241C6.46793 10.241 6.11238 7.55155 7.85355 6.51796C9.46923 5.55819 10.881 6.05389 12.3241 6.05389C12.9516 6.05389 13.5006 6.01171 13.9869 5.93788C11.0065 6.03807 9.24963 3.76522 6.17512 5.64784Z" fill="#5A4146"/>
<path d="M5.1085 10.974L5.63138 13.0781C5.69413 13.326 5.91373 13.5 6.16994 13.5C6.4523 13.5 6.68759 13.289 6.71896 13.0096L6.98563 10.858C7.05883 10.2832 6.61439 9.77167 6.03922 9.77167C5.41177 9.77694 4.95687 10.3676 5.1085 10.974Z" fill="#E6AF78"/>
</g>
<defs>
<clipPath id="clip0">
<rect width="24" height="27" fill="white"/>
</clipPath>
</defs>
</svg>
