<svg width="24" height="24" viewBox="0 0 24 24" fill="none" xmlns="http://www.w3.org/2000/svg">
<path d="M12.0003 1C5.92574 1 1 5.92493 1 11.9997C1 16.5038 3.70854 20.3728 7.58449 22.0741C7.55346 21.3061 7.57856 20.3835 7.776 19.549C7.98754 18.6555 9.19133 13.5552 9.19133 13.5552C9.19133 13.5552 8.8399 12.8529 8.8399 11.815C8.8399 10.1851 9.78477 8.96698 10.9609 8.96698C11.9614 8.96698 12.4448 9.71832 12.4448 10.6183C12.4448 11.624 11.8037 13.1273 11.4737 14.5217C11.1978 15.689 12.0589 16.6404 13.21 16.6404C15.2941 16.6404 16.6976 13.9638 16.6976 10.792C16.6976 8.38203 15.0741 6.57756 12.1207 6.57756C8.78377 6.57756 6.70505 9.06569 6.70505 11.8449C6.70505 12.8038 6.98767 13.4793 7.43049 14.0019C7.63385 14.2425 7.66205 14.3392 7.58844 14.6156C7.53569 14.8178 7.41441 15.3049 7.36449 15.4981C7.29144 15.7768 7.06579 15.876 6.81364 15.7734C5.27674 15.1458 4.5609 13.4629 4.5609 11.571C4.5609 8.44605 7.1961 4.69976 12.4225 4.69976C16.6225 4.69976 19.3866 7.73871 19.3866 11.0016C19.3866 15.3159 16.9875 18.5396 13.4512 18.5396C12.264 18.5396 11.1468 17.8974 10.7641 17.1686C10.7641 17.1686 10.1255 19.7024 9.99039 20.1926C9.75713 21.0407 9.30049 21.8885 8.88305 22.5487C9.89518 22.848 10.9451 23 12.0006 23C18.0748 22.9994 23 18.0742 23 11.9997C23 5.92493 18.0748 1 12.0003 1Z" fill="white"/>
</svg>
