<svg width="24" height="28" viewBox="0 0 24 28" fill="none" xmlns="http://www.w3.org/2000/svg">
<g clip-path="url(#clip0)">
<path d="M6 0V6H0V24H10V0H6Z" fill="#9AE3DF"/>
<path d="M20 23.97V0H10V24L20 23.97Z" fill="#B0F2EE"/>
<path d="M6 0L0 6H6V0Z" fill="#66C7C1"/>
<path d="M21.244 25.2303L19.5397 26.9492L19.8781 27.2893C20.3314 27.7449 20.9418 28.0061 21.5885 28.0061C22.2292 28.0061 22.8456 27.751 23.2989 27.2893L21.244 25.2303Z" fill="#898890"/>
<path d="M23.2868 27.2833C23.7401 26.8277 23.994 26.2143 23.994 25.5644C23.994 24.9206 23.7401 24.3011 23.2868 23.8516L22.9484 23.5115L21.238 25.2303L23.2868 27.2833Z" fill="#96959C"/>
<path d="M14.753 15.2694L10.3108 14.243L13.0426 16.9883L14.753 15.2694Z" fill="#96959C"/>
<path d="M10.3108 14.243L11.3322 18.7072L13.0426 16.9883L10.3108 14.243Z" fill="#898890"/>
<path d="M21.244 25.2304L22.9544 23.5115L20.2951 20.839L14.759 15.2694L13.0486 16.9883L21.244 25.2304Z" fill="#FF633B"/>
<path d="M13.0426 16.9883L11.3322 18.7072L16.8743 24.2707L19.5336 26.9432L21.238 25.2243L13.0426 16.9883Z" fill="#FF5023"/>
<rect x="4" y="8" width="12" height="1" fill="white"/>
<rect x="4" y="11" width="12" height="1" fill="white"/>
<rect x="4" y="14" width="4" height="1" fill="white"/>
</g>
<defs>
<clipPath id="clip0">
<rect width="24" height="28" fill="white"/>
</clipPath>
</defs>
</svg>
