<svg width="45" height="27" viewBox="0 0 45 27" fill="none" xmlns="http://www.w3.org/2000/svg">
<path d="M36.675 17.925C36.675 18.575 36.55 19.225 36.3 19.875C36.05 20.525 35.675 21.125 35.175 21.675C34.675 22.175 34.05 22.6 33.3 22.95C32.6 23.25 31.8 23.4 30.9 23.4C29.9 23.4 28.925 23.225 27.975 22.875C27.075 22.475 26.3 21.925 25.65 21.225C25.1 20.575 24.675 19.8 24.375 18.9C24.075 18 23.925 17.05 23.925 16.05C23.925 14.15 24.25 12.4 24.9 10.8C25.6 9.2 26.575 7.775 27.825 6.525C28.375 5.975 29 5.475 29.7 5.025C30.4 4.525 31.05 4.125 31.65 3.825C32.3 3.475 32.85 3.2 33.3 3C33.75 2.8 34.025 2.675 34.125 2.62499L37.125 7.05C36.575 7.25 35.95 7.525 35.25 7.875C34.6 8.175 33.975 8.575 33.375 9.075C32.775 9.525 32.275 10.075 31.875 10.725C31.475 11.375 31.25 12.125 31.2 12.975C32.65 12.975 33.925 13.4 35.025 14.25C36.125 15.1 36.675 16.325 36.675 17.925ZM20.775 17.925C20.775 18.575 20.65 19.225 20.4 19.875C20.15 20.525 19.775 21.125 19.275 21.675C18.775 22.175 18.15 22.6 17.4 22.95C16.7 23.25 15.9 23.4 15 23.4C14 23.4 13.025 23.225 12.075 22.875C11.175 22.475 10.4 21.925 9.75 21.225C9.2 20.575 8.775 19.8 8.475 18.9C8.175 18 8.025 17.05 8.025 16.05C8.025 14.15 8.35 12.4 9 10.8C9.7 9.2 10.675 7.775 11.925 6.525C12.475 5.975 13.1 5.475 13.8 5.025C14.5 4.525 15.15 4.125 15.75 3.825C16.4 3.475 16.95 3.2 17.4 3C17.85 2.8 18.125 2.675 18.225 2.62499L21.225 7.05C20.675 7.25 20.05 7.525 19.35 7.875C18.7 8.175 18.075 8.575 17.475 9.075C16.875 9.525 16.375 10.075 15.975 10.725C15.575 11.375 15.35 12.125 15.3 12.975C16.75 12.975 18.025 13.4 19.125 14.25C20.225 15.1 20.775 16.325 20.775 17.925Z" fill="#1F2933"/>
</svg>
