<svg width="38" height="24" viewBox="0 0 38 24" fill="none" xmlns="http://www.w3.org/2000/svg">
<path d="M1.325 6.075C1.325 5.425 1.45 4.775 1.7 4.125C1.95 3.475 2.325 2.875 2.825 2.325C3.325 1.825 3.95 1.4 4.7 1.05C5.4 0.749998 6.2 0.599997 7.1 0.599997C8.1 0.599997 9.075 0.774998 10.025 1.125C10.925 1.525 11.7 2.075 12.35 2.775C12.9 3.425 13.325 4.2 13.625 5.1C13.925 6 14.075 6.95 14.075 7.95C14.075 9.85 13.75 11.6 13.1 13.2C12.4 14.8 11.425 16.225 10.175 17.475C9.625 18.025 9 18.525 8.3 18.975C7.6 19.475 6.95 19.875 6.35 20.175C5.7 20.525 5.15 20.8 4.7 21C4.25 21.2 3.975 21.325 3.875 21.375L0.874998 16.95C1.425 16.75 2.05 16.475 2.75 16.125C3.4 15.825 4.025 15.425 4.625 14.925C5.225 14.475 5.725 13.925 6.125 13.275C6.525 12.625 6.75 11.875 6.8 11.025C5.35 11.025 4.075 10.6 2.975 9.75C1.875 8.9 1.325 7.675 1.325 6.075ZM17.225 6.075C17.225 5.425 17.35 4.775 17.6 4.125C17.85 3.475 18.225 2.875 18.725 2.325C19.225 1.825 19.85 1.4 20.6 1.05C21.3 0.749999 22.1 0.599998 23 0.599998C24 0.599999 24.975 0.774999 25.925 1.125C26.825 1.525 27.6 2.075 28.25 2.775C28.8 3.425 29.225 4.2 29.525 5.1C29.825 6 29.975 6.95 29.975 7.95C29.975 9.85 29.65 11.6 29 13.2C28.3 14.8 27.325 16.225 26.075 17.475C25.525 18.025 24.9 18.525 24.2 18.975C23.5 19.475 22.85 19.875 22.25 20.175C21.6 20.525 21.05 20.8 20.6 21C20.15 21.2 19.875 21.325 19.775 21.375L16.775 16.95C17.325 16.75 17.95 16.475 18.65 16.125C19.3 15.825 19.925 15.425 20.525 14.925C21.125 14.475 21.625 13.925 22.025 13.275C22.425 12.625 22.65 11.875 22.7 11.025C21.25 11.025 19.975 10.6 18.875 9.75C17.775 8.9 17.225 7.675 17.225 6.075Z" fill="#1F2933"/>
</svg>
