<svg width="55" height="20" viewBox="0 0 55 20" fill="none" xmlns="http://www.w3.org/2000/svg">
<path d="M6 5.5V2L0 8.06667L6 14V10.5C10.1667 10.5 12.9167 11.9667 15 15C14.1667 10.6667 11.8333 6.36667 6 5.5Z" fill="#504DE2"/>
<path d="M19.744 4.684C19.928 4.652 20.124 4.624 20.332 4.6C20.548 4.568 20.76 4.544 20.968 4.528C21.184 4.512 21.392 4.5 21.592 4.492C21.792 4.484 21.976 4.48 22.144 4.48C22.536 4.48 22.92 4.52 23.296 4.6C23.68 4.672 24.02 4.8 24.316 4.984C24.62 5.168 24.86 5.416 25.036 5.728C25.22 6.04 25.312 6.428 25.312 6.892C25.312 7.236 25.276 7.536 25.204 7.792C25.14 8.04 25.048 8.26 24.928 8.452C24.808 8.644 24.66 8.812 24.484 8.956C24.316 9.092 24.132 9.216 23.932 9.328L25.96 13H24.064L22.372 9.712H21.388V13H19.744V4.684ZM22.264 5.944C22.096 5.944 21.928 5.948 21.76 5.956C21.6 5.964 21.476 5.98 21.388 6.004V8.44H22.036C22.492 8.44 22.864 8.336 23.152 8.128C23.44 7.92 23.584 7.576 23.584 7.096C23.584 6.736 23.472 6.456 23.248 6.256C23.024 6.048 22.696 5.944 22.264 5.944ZM32.6033 12.364C32.4993 12.46 32.3633 12.556 32.1953 12.652C32.0353 12.74 31.8433 12.824 31.6193 12.904C31.4033 12.984 31.1633 13.048 30.8993 13.096C30.6353 13.144 30.3553 13.168 30.0593 13.168C29.5473 13.168 29.0873 13.096 28.6793 12.952C28.2793 12.808 27.9393 12.6 27.6593 12.328C27.3793 12.048 27.1633 11.716 27.0113 11.332C26.8673 10.94 26.7953 10.496 26.7953 10C26.7953 9.472 26.8793 9.012 27.0473 8.62C27.2153 8.22 27.4433 7.888 27.7313 7.624C28.0273 7.36 28.3713 7.164 28.7633 7.036C29.1553 6.9 29.5793 6.832 30.0353 6.832C30.3393 6.832 30.6513 6.872 30.9713 6.952C31.2993 7.032 31.5993 7.172 31.8713 7.372C32.1433 7.564 32.3633 7.824 32.5313 8.152C32.7073 8.48 32.7953 8.896 32.7953 9.4C32.7953 9.744 32.7553 10.116 32.6753 10.516H28.3553C28.3633 10.772 28.4153 10.988 28.5113 11.164C28.6153 11.34 28.7473 11.484 28.9073 11.596C29.0753 11.708 29.2633 11.792 29.4713 11.848C29.6873 11.896 29.9153 11.92 30.1553 11.92C30.6353 11.92 31.0273 11.864 31.3313 11.752C31.6433 11.64 31.8953 11.504 32.0873 11.344L32.6033 12.364ZM30.0113 8.08C29.8033 8.08 29.6073 8.108 29.4233 8.164C29.2393 8.22 29.0713 8.304 28.9193 8.416C28.7753 8.52 28.6553 8.652 28.5593 8.812C28.4633 8.972 28.4073 9.152 28.3913 9.352H31.3433C31.3433 8.96 31.2313 8.652 31.0073 8.428C30.7913 8.196 30.4593 8.08 30.0113 8.08ZM33.3906 7H35.4306L35.6106 7.72H35.6586C36.0746 7.128 36.7466 6.832 37.6746 6.832C38.0426 6.832 38.3786 6.892 38.6826 7.012C38.9946 7.124 39.2586 7.304 39.4746 7.552C39.6986 7.8 39.8706 8.112 39.9906 8.488C40.1106 8.864 40.1706 9.316 40.1706 9.844C40.1706 10.356 40.1026 10.82 39.9666 11.236C39.8306 11.644 39.6346 11.992 39.3786 12.28C39.1226 12.568 38.8106 12.788 38.4426 12.94C38.0746 13.092 37.6546 13.168 37.1826 13.168C36.9346 13.168 36.6906 13.148 36.4506 13.108C36.2106 13.076 36.0106 13.02 35.8506 12.94V15.4H34.2906V8.32H33.3906V7ZM37.2066 8.152C36.9026 8.152 36.6226 8.228 36.3666 8.38C36.1186 8.532 35.9466 8.76 35.8506 9.064V11.56C35.9626 11.648 36.1226 11.72 36.3306 11.776C36.5466 11.824 36.7626 11.848 36.9786 11.848C37.2026 11.848 37.4106 11.812 37.6026 11.74C37.7946 11.66 37.9626 11.536 38.1066 11.368C38.2506 11.2 38.3626 10.988 38.4426 10.732C38.5226 10.476 38.5626 10.168 38.5626 9.808C38.5626 9.28 38.4346 8.872 38.1786 8.584C37.9226 8.296 37.5986 8.152 37.2066 8.152ZM41.6299 4.6H44.1859V10.144C44.1859 10.76 44.2619 11.188 44.4139 11.428C44.5659 11.668 44.8099 11.788 45.1459 11.788C45.3939 11.788 45.5979 11.764 45.7579 11.716C45.9179 11.66 46.0779 11.584 46.2379 11.488L46.8259 12.568C46.6899 12.656 46.5539 12.74 46.4179 12.82C46.2819 12.892 46.1379 12.952 45.9859 13C45.8339 13.056 45.6659 13.096 45.4819 13.12C45.3059 13.152 45.1059 13.168 44.8819 13.168C44.1299 13.168 43.5659 12.976 43.1899 12.592C42.8139 12.208 42.6259 11.664 42.6259 10.96V5.92H41.6299V4.6ZM51.3933 11.308H51.8493L53.0133 7H54.6213L52.9173 12.412C52.7653 12.86 52.6173 13.268 52.4733 13.636C52.3293 14.012 52.1613 14.336 51.9693 14.608C51.7773 14.88 51.5493 15.088 51.2853 15.232C51.0293 15.384 50.7133 15.46 50.3373 15.46C50.1533 15.46 49.9773 15.436 49.8093 15.388C49.6493 15.34 49.5013 15.28 49.3652 15.208C49.2293 15.144 49.1093 15.072 49.0053 14.992C48.9013 14.92 48.8173 14.852 48.7533 14.788L49.5573 13.72C49.6613 13.808 49.7853 13.888 49.9293 13.96C50.0733 14.04 50.2093 14.08 50.3373 14.08C50.5773 14.08 50.7653 13.996 50.9013 13.828C51.0453 13.66 51.1813 13.384 51.3092 13H50.4573L47.9613 7H49.6533L51.3933 11.308Z" fill="black"/>
</svg>
