<svg width="22" height="22" viewBox="0 0 22 22" fill="none" xmlns="http://www.w3.org/2000/svg">
<path d="M18.9655 8.55061L18.3755 7.21458C18.3755 7.21458 19.6398 4.18623 19.5556 4.09717L17.8697 2.40486C17.7854 2.31579 14.8352 3.65182 14.8352 3.65182L13.5709 3.02834C13.5709 3.02834 12.3908 0 12.2222 0H9.77778C9.6092 0 8.51341 3.02834 8.51341 3.02834L7.16475 3.56275C7.16475 3.56275 4.21456 2.22672 4.04598 2.40486L2.36015 4.09717C2.27586 4.18623 3.62452 7.21458 3.62452 7.21458L3.03448 8.55061C3.03448 8.55061 0 9.7085 0 9.88664V12.2915C0 12.4696 3.03448 13.5385 3.03448 13.5385L3.62452 14.8745C3.62452 14.8745 2.36015 17.9028 2.44444 17.9919L4.13027 19.6842C4.21456 19.7733 7.16475 18.4372 7.16475 18.4372L8.51341 18.9717C8.51341 18.9717 9.69349 22 9.86207 22H12.3065C12.4751 22 13.5709 18.9717 13.5709 18.9717L14.9195 18.4372C14.9195 18.4372 17.8697 19.7733 17.954 19.5951L19.6398 17.9028C19.7241 17.8138 18.3755 14.8745 18.3755 14.8745L18.9655 13.5385C18.9655 13.5385 22 12.2915 22 12.2024V9.79757C22 9.7085 18.9655 8.55061 18.9655 8.55061Z" fill="#AFBDE0"/>
<path d="M11 8C12.65 8 14 9.35 14 11C14 12.65 12.65 14 11 14C9.35 14 8 12.65 8 11C8 9.35 9.35 8 11 8Z" fill="white"/>
<circle cx="11" cy="11" r="4" fill="#93A3CA"/>
<circle cx="11" cy="11" r="2" fill="white"/>
</svg>
