<svg width="20" height="25" viewBox="0 0 20 25" fill="none" xmlns="http://www.w3.org/2000/svg">
<path d="M14.9127 9.28388L11.1677 12.4805C15.0169 13.0209 16.8679 15.0977 17.7383 17.1875L16.1263 18.4636L9.9234 23.3854L2.90532 15.9505C3.94731 14.3294 5.74933 12.9102 8.83238 12.4805L2.35368 7.9883C1.20137 5.43622 1.56913 2.77346 1.56913 2.77346L10.0031 1.58856L16.445 2.49351L18.4309 2.77346C18.4309 2.77346 18.67 4.50523 18.1551 6.51044L14.9127 9.28388Z" fill="#DCF8FF"/>
<path d="M18.1551 6.5104L14.9127 9.28383C16.5308 6.8229 16.5737 3.99738 16.445 2.49347L18.4309 2.77342C18.4309 2.77342 18.67 4.50519 18.1551 6.5104Z" fill="#D2E1F9"/>
<path d="M17.7383 17.1875L16.1263 18.4635C15.5685 16.3021 14.214 13.9453 11.1616 12.4805C15.0169 13.0208 16.8618 15.0977 17.7383 17.1875Z" fill="#D2E1F9"/>
<path d="M18.4308 22.194L16.4449 22.474L9.92946 23.3854L1.56906 22.194C1.56906 22.194 1.10323 18.7696 2.90525 15.9571C3.87369 16.5104 4.99535 16.9922 7.42257 16.9922C9.15717 16.9922 9.98463 16.7643 12.6754 16.1328C13.6193 15.9115 14.4284 15.892 15.1087 15.9831C16.6166 16.1914 17.4931 16.9401 17.7444 17.1875C18.7741 19.6745 18.4308 22.194 18.4308 22.194Z" fill="#FFE878"/>
<path d="M18.1551 6.51044C17.5299 8.96486 15.7953 11.8294 11.1615 12.4805C11.1615 12.4805 10.567 14.0235 10.8305 16.5625L9.24916 16.888C9.52498 13.3985 8.82623 12.4805 8.82623 12.4805C5.10573 11.9597 3.25467 10.0065 2.34753 7.9883C2.60497 7.74091 4.52345 6.0482 7.82102 6.83596C10.5792 7.49351 11.4312 7.72788 13.2148 7.72788C14.2507 7.72788 15.1088 7.61721 15.8259 7.44143C16.8373 7.20705 17.5728 6.84898 18.1551 6.51044Z" fill="#FFE878"/>
<path d="M18.4309 22.194L16.445 22.4739C16.5676 21.0286 16.5369 18.3724 15.1027 15.9896C16.6105 16.1979 17.487 16.9466 17.7383 17.194C18.7741 19.6745 18.4309 22.194 18.4309 22.194Z" fill="#FFD37B"/>
<path d="M20 23.4114C20 24.0234 19.9081 24.6159 19.9019 24.6419C19.8774 24.8177 19.7303 24.9479 19.5648 24.9479C19.5464 24.9479 19.0377 24.9544 18.1918 24.9609C16.4205 24.9739 13.1964 25 10.0031 25C5.27122 25 0.478088 24.9544 0.429053 24.9544C0.263561 24.9544 0.122587 24.8242 0.0919399 24.6484C0.0919399 24.6224 0 24.0234 0 23.4114C0 22.7995 0.0919399 22.207 0.0980693 22.181C0.122587 22.0052 0.263561 21.875 0.429053 21.875C0.478088 21.875 5.26509 21.8294 9.99694 21.8294C13.1781 21.8294 16.3837 21.8489 18.1612 21.8685C19.0254 21.875 19.5526 21.8815 19.5648 21.8815C19.7303 21.8815 19.8774 22.0117 19.9019 22.1875C19.9081 22.207 20 22.806 20 23.4114Z" fill="#E2A67D"/>
<path d="M20 23.4115C20 24.0234 19.9081 24.6159 19.9019 24.6419C19.8774 24.8177 19.7303 24.9479 19.5648 24.9479C19.5464 24.9479 19.0377 24.9544 18.1918 24.9609C18.296 23.3529 18.1857 22.0833 18.1612 21.8555C19.0254 21.862 19.5526 21.8685 19.5648 21.8685C19.7303 21.8685 19.8774 21.9987 19.9019 22.1745C19.9081 22.207 20 22.806 20 23.4115Z" fill="#D18766"/>
<path d="M20 1.58854C20 2.20052 19.9081 2.79297 19.9019 2.81901C19.8774 2.99479 19.7303 3.125 19.5648 3.125C19.5464 3.125 19.0377 3.13151 18.1918 3.13802C16.4205 3.15104 13.1964 3.17708 9.99694 3.17708C5.27122 3.17708 0.478088 3.125 0.435182 3.125C0.26969 3.125 0.128716 2.99479 0.0980693 2.81901C0.0919399 2.79297 0 2.20052 0 1.58854C0 0.976562 0.0919399 0.377604 0.0980693 0.358073C0.122587 0.182292 0.263561 0.0520833 0.435182 0.0455729C0.478088 0.0455729 5.27122 0 9.99694 0C13.1781 0 16.3837 0.0195312 18.1612 0.0390625C19.0254 0.0455729 19.5526 0.0520833 19.5648 0.0520833C19.7303 0.0520833 19.8774 0.182292 19.9019 0.358073C19.9081 0.377604 20 0.976562 20 1.58854Z" fill="#E2A67D"/>
<path d="M20 1.58852C20 2.2005 19.9081 2.79294 19.9019 2.81899C19.8774 2.99477 19.7303 3.12497 19.5648 3.12497C19.5464 3.12497 19.0377 3.13148 18.1918 3.138C18.296 1.52993 18.1857 0.260396 18.1612 0.0325317C19.0254 0.0390421 19.5526 0.0455525 19.5648 0.0455525C19.7303 0.0455525 19.8774 0.175761 19.9019 0.351542C19.9081 0.377583 20 0.976541 20 1.58852Z" fill="#D18766"/>
<path d="M9.98464 10.5469C9.98464 10.7487 9.83141 10.9115 9.6414 10.9115C9.45139 10.9115 9.29816 10.7487 9.29816 10.5469C9.29816 10.3451 9.45139 10.1823 9.6414 10.1823C9.82528 10.1823 9.98464 10.3451 9.98464 10.5469Z" fill="#FFFBD7"/>
<path d="M7 8.5C7 8.77679 6.77679 9 6.5 9C6.22321 9 6 8.77679 6 8.5C6 8.22321 6.22321 8 6.5 8C6.77679 8 7 8.22321 7 8.5Z" fill="#FFFBD7"/>
<path d="M10 10.5C10 10.7768 9.77679 11 9.5 11C9.22321 11 9 10.7768 9 10.5C9 10.2232 9.22321 10 9.5 10C9.76786 10 10 10.2232 10 10.5Z" fill="#FFFBD7"/>
<path d="M13 9.5C13 9.77679 12.7768 10 12.5 10C12.2232 10 12 9.77679 12 9.5C12 9.22321 12.2232 9 12.5 9C12.7768 9 13 9.22321 13 9.5Z" fill="#FFFBD7"/>
<path d="M5 19.5001C5 19.7768 4.77679 20 4.5 20C4.22321 20 4 19.7768 4 19.5001C4 19.2234 4.22321 19.0002 4.5 19.0002C4.77679 18.9913 5 19.2234 5 19.5001Z" fill="#FFFBD7"/>
<path d="M8 20.5C8 20.7768 7.77679 21 7.5 21C7.22321 21 7 20.7768 7 20.5C7 20.2232 7.22321 20 7.5 20C7.76786 20 8 20.2232 8 20.5Z" fill="#FFFBD7"/>
<path d="M10 18.5C10 18.7768 9.77679 19 9.5 19C9.22321 19 9 18.7768 9 18.5C9 18.2232 9.22321 18 9.5 18C9.77679 18 10 18.2232 10 18.5Z" fill="#FFFBD7"/>
<path d="M13 20.5C13 20.7768 12.7768 21 12.5 21C12.2232 21 12 20.7768 12 20.5C12 20.2232 12.2232 20 12.5 20C12.7768 20 13 20.2232 13 20.5Z" fill="#FFFBD7"/>
<path d="M16 19.5C16 19.7768 15.7768 20 15.5 20C15.2232 20 15 19.7768 15 19.5C15 19.2232 15.2232 19 15.5 19C15.7768 19 16 19.2232 16 19.5Z" fill="#FFFBD7"/>
<path d="M18.1551 6.51044C17.5299 8.96486 15.7953 11.8294 11.1616 12.4805C13.7726 11.224 15.1395 9.32294 15.826 7.44794C16.8373 7.20705 17.5728 6.84898 18.1551 6.51044Z" fill="#FFD37B"/>
</svg>
